# xmcd
#
# Track frame offsets: 
#        150
#        13832
#        26215
#        35662
#        60485
#        73742
#        88417
#        102602
#        116102
#        135855
#        149462
#        166980
#
# Disc length: 2534 seconds
#
# Revision: 8
# Processed by: cddbd v1.5.2PL0 Copyright (c) Steve Scherf et al.
# Submitted via: ExactAudioCopy v0.99pb4
#
DISCID=b209e40c
DTITLE=John Lee Hooker - 20th Century Masters - 
DYEAR=1999
DGENRE=Blues
TTITLE0=One Bourbon, One Scotch, One Beer
TTITLE1=I'm In The Mood
TTITLE2=Think Twice Before You Go
TTITLE3=I'm Bad Like Jesse James
TTITLE4=Walkin' The Boogie
TTITLE5=Sugar Mama
TTITLE6=Dreamin' Blues
TTITLE7=Ground Hog Blues
TTITLE8=Shake It Baby
TTITLE9=It's My Own Fault
TTITLE10=Lonely Boy Boogie (a.k.a. New Boogie)
TTITLE11=It Serves You Right To Suffer
EXTD=Universal Music (MCA) \nThe Best Of John Lee Hooker - 20th Centur
EXTD=y Masters - Millenium Collection
EXTT0=
EXTT1=
EXTT2=
EXTT3=
EXTT4=
EXTT5=
EXTT6=
EXTT7=
EXTT8=
EXTT9=
EXTT10=
EXTT11=
PLAYORDER=
